<svg xmlns="http://www.w3.org/2000/svg" viewBox="0 0 1200 700" width="1200" height="700" role="img" aria-label="Set budget, sales tracking and audience" font-family="Inter, -apple-system, Segoe UI, Roboto, Helvetica, Arial, sans-serif">
<title>Set budget, sales tracking and audience</title>
<rect width="1200" height="700" rx="18" fill="#faf7f2"/>
<rect x="20" y="20" width="820" height="620" rx="14" fill="#fff" stroke="#cbd5e1"/>
<rect x="20" y="20" width="820" height="40" rx="14" fill="#f1f5f9"/><rect x="20" y="46" width="820" height="14" fill="#f1f5f9"/>
<circle cx="44" cy="40" r="6" fill="#fca5a5"/><circle cx="64" cy="40" r="6" fill="#fcd34d"/><circle cx="84" cy="40" r="6" fill="#86efac"/>
<text x="430" y="45" font-size="13" fill="#64748b" text-anchor="middle">Meta Ads Manager (simplified drawing)</text>
<rect x="20" y="60" width="56" height="580" rx="0" fill="#f8fafc" stroke="#e2e8f0" stroke-width="1"/>
<rect x="36" y="84" width="24" height="24" rx="6" fill="#e2e8f0" stroke="none" stroke-width="1"/>
<rect x="36" y="132" width="24" height="24" rx="6" fill="#e2e8f0" stroke="none" stroke-width="1"/>
<rect x="36" y="180" width="24" height="24" rx="6" fill="#e2e8f0" stroke="none" stroke-width="1"/>
<rect x="36" y="228" width="24" height="24" rx="6" fill="#e2e8f0" stroke="none" stroke-width="1"/>
<rect x="36" y="276" width="24" height="24" rx="6" fill="#e2e8f0" stroke="none" stroke-width="1"/>
<rect x="36" y="324" width="24" height="24" rx="6" fill="#e2e8f0" stroke="none" stroke-width="1"/>
<text x="96" y="92" font-size="18" font-weight="800" fill="#0f172a" text-anchor="start">Ads Manager</text>
<rect x="96" y="108" width="140" height="36" rx="6" fill="#fff" stroke="#e2e8f0" stroke-width="1"/>
<text x="166" y="131" font-size="13" font-weight="500" fill="#334155" text-anchor="middle">Campaigns</text>
<rect x="246" y="108" width="140" height="36" rx="6" fill="#eff6ff" stroke="#1877f2" stroke-width="1"/>
<text x="316" y="131" font-size="13" font-weight="700" fill="#1877f2" text-anchor="middle">Ad sets</text>
<rect x="396" y="108" width="140" height="36" rx="6" fill="#fff" stroke="#e2e8f0" stroke-width="1"/>
<text x="466" y="131" font-size="13" font-weight="500" fill="#334155" text-anchor="middle">Ads</text>
<rect x="96" y="160" width="340" height="460" rx="10" fill="#fff" stroke="#e2e8f0" stroke-width="1"/>
<text x="116" y="190" font-size="15" font-weight="800" fill="#0f172a" text-anchor="start">Campaign</text>
<text x="116" y="214" font-size="12" font-weight="600" fill="#475569" text-anchor="start">Budget</text>
<rect x="116" y="222" width="300" height="34" rx="6" fill="#fff" stroke="#cbd5e1" stroke-width="1"/>
<text x="126" y="244.0" font-size="13" font-weight="400" fill="#0f172a" text-anchor="start">Campaign budget · Daily</text>
<text x="116" y="274" font-size="12" font-weight="600" fill="#475569" text-anchor="start">Daily budget</text>
<rect x="116" y="282" width="300" height="34" rx="6" fill="#fff" stroke="#cbd5e1" stroke-width="1"/>
<text x="126" y="304.0" font-size="13" font-weight="400" fill="#0f172a" text-anchor="start">$120.00</text>
<text x="116" y="334" font-size="12" font-weight="600" fill="#475569" text-anchor="start">Bid strategy</text>
<rect x="116" y="342" width="300" height="34" rx="6" fill="#fff" stroke="#cbd5e1" stroke-width="1"/>
<text x="126" y="364.0" font-size="13" font-weight="400" fill="#0f172a" text-anchor="start">Highest volume</text>
<rect x="456" y="160" width="360" height="460" rx="10" fill="#fff" stroke="#e2e8f0" stroke-width="1"/>
<text x="476" y="190" font-size="15" font-weight="800" fill="#0f172a" text-anchor="start">Ad set</text>
<text x="476" y="214" font-size="12" font-weight="600" fill="#475569" text-anchor="start">Conversion location</text>
<rect x="476" y="222" width="320" height="34" rx="6" fill="#fff" stroke="#cbd5e1" stroke-width="1"/>
<text x="486" y="244.0" font-size="13" font-weight="400" fill="#0f172a" text-anchor="start">Website</text>
<text x="476" y="274" font-size="12" font-weight="600" fill="#475569" text-anchor="start">Pixel and event</text>
<rect x="476" y="282" width="320" height="34" rx="6" fill="#fff" stroke="#cbd5e1" stroke-width="1"/>
<text x="486" y="304.0" font-size="13" font-weight="400" fill="#0f172a" text-anchor="start">My store pixel · Purchase</text>
<text x="476" y="334" font-size="12" font-weight="600" fill="#475569" text-anchor="start">Location</text>
<rect x="476" y="342" width="320" height="34" rx="6" fill="#fff" stroke="#cbd5e1" stroke-width="1"/>
<text x="486" y="364.0" font-size="13" font-weight="400" fill="#0f172a" text-anchor="start">Australia</text>
<text x="476" y="404" font-size="12" font-weight="600" fill="#475569" text-anchor="start">Advantage+ audience</text>
<rect x="756" y="392" width="36" height="20" rx="10" fill="#1877f2" stroke="none" stroke-width="1"/>
<circle cx="782" cy="402" r="7" fill="#fff"/>
<text x="476" y="444" font-size="12" font-weight="600" fill="#475569" text-anchor="start">Placements</text>
<rect x="476" y="452" width="320" height="34" rx="6" fill="#eff6ff" stroke="#93c5fd" stroke-width="1"/>
<text x="486" y="474" font-size="13" font-weight="400" fill="#0f172a" text-anchor="start">Advantage+ placements (recommended)</text>
<line x1="76" y1="300" x2="116" y2="300" stroke="#b8601d" stroke-width="2.5" stroke-dasharray="5 4"/>
<circle cx="116" cy="300" r="5" fill="#b8601d"/>
<circle cx="76" cy="300" r="17" fill="#b8601d" stroke="#fff" stroke-width="3"/>
<text x="76" y="306" font-size="16" font-weight="800" fill="#fff" text-anchor="middle">1</text>
<line x1="836" y1="300" x2="796" y2="300" stroke="#b8601d" stroke-width="2.5" stroke-dasharray="5 4"/>
<circle cx="796" cy="300" r="5" fill="#b8601d"/>
<circle cx="836" cy="300" r="17" fill="#b8601d" stroke="#fff" stroke-width="3"/>
<text x="836" y="306" font-size="16" font-weight="800" fill="#fff" text-anchor="middle">2</text>
<line x1="836" y1="360" x2="796" y2="360" stroke="#b8601d" stroke-width="2.5" stroke-dasharray="5 4"/>
<circle cx="796" cy="360" r="5" fill="#b8601d"/>
<circle cx="836" cy="360" r="17" fill="#b8601d" stroke="#fff" stroke-width="3"/>
<text x="836" y="366" font-size="16" font-weight="800" fill="#fff" text-anchor="middle">3</text>
<line x1="836" y1="470" x2="796" y2="470" stroke="#b8601d" stroke-width="2.5" stroke-dasharray="5 4"/>
<circle cx="796" cy="470" r="5" fill="#b8601d"/>
<circle cx="836" cy="470" r="17" fill="#b8601d" stroke="#fff" stroke-width="3"/>
<text x="836" y="476" font-size="16" font-weight="800" fill="#fff" text-anchor="middle">4</text>
<rect x="860" y="20" width="320" height="620" rx="14" fill="#0b1f3a"/>
<text x="884" y="56" font-size="18" font-weight="800" fill="#fff">Set budget, sales tracking</text>
<text x="884" y="80" font-size="18" font-weight="800" fill="#fff">and audience</text>
<circle cx="896" cy="111" r="13" fill="#b8601d"/><text x="896" y="116" font-size="13" font-weight="800" fill="#fff" text-anchor="middle">1</text>
<text x="920" y="116" font-size="14" fill="#e2e8f0">Set one daily budget for the whole</text>
<text x="920" y="135" font-size="14" fill="#e2e8f0">campaign. Start at 2 to 3 times</text>
<text x="920" y="154" font-size="14" fill="#e2e8f0">your target cost per sale.</text>
<circle cx="896" cy="186" r="13" fill="#b8601d"/><text x="896" y="191" font-size="13" font-weight="800" fill="#fff" text-anchor="middle">2</text>
<text x="920" y="191" font-size="14" fill="#e2e8f0">Choose Website, your pixel and the</text>
<text x="920" y="210" font-size="14" fill="#e2e8f0">Purchase event, so Meta learns</text>
<text x="920" y="229" font-size="14" fill="#e2e8f0">from real sales.</text>
<circle cx="896" cy="261" r="13" fill="#b8601d"/><text x="896" y="266" font-size="13" font-weight="800" fill="#fff" text-anchor="middle">3</text>
<text x="920" y="266" font-size="14" fill="#e2e8f0">Pick your country. Leave</text>
<text x="920" y="285" font-size="14" fill="#e2e8f0">Advantage+ audience on so Meta can</text>
<text x="920" y="304" font-size="14" fill="#e2e8f0">find buyers.</text>
<circle cx="896" cy="336" r="13" fill="#b8601d"/><text x="896" y="341" font-size="13" font-weight="800" fill="#fff" text-anchor="middle">4</text>
<text x="920" y="341" font-size="14" fill="#e2e8f0">Keep Advantage+ placements so your</text>
<text x="920" y="360" font-size="14" fill="#e2e8f0">ads can show everywhere they work.</text>
<text x="24" y="668" font-size="12" fill="#64748b">Screens change often. Labels on your screen may look a little different.</text>
<text x="1176" y="668" font-size="12" fill="#64748b" text-anchor="end">Ecommerce Helix guide · not a real screenshot</text></svg>