<svg xmlns="http://www.w3.org/2000/svg" viewBox="0 0 1200 700" width="1200" height="700" role="img" aria-label="Find yesterday&#x27;s numbers" font-family="Inter, -apple-system, Segoe UI, Roboto, Helvetica, Arial, sans-serif">
<title>Find yesterday&#x27;s numbers</title>
<rect width="1200" height="700" rx="18" fill="#faf7f2"/>
<rect x="20" y="20" width="820" height="620" rx="14" fill="#fff" stroke="#cbd5e1"/>
<rect x="20" y="20" width="820" height="40" rx="14" fill="#f1f5f9"/><rect x="20" y="46" width="820" height="14" fill="#f1f5f9"/>
<circle cx="44" cy="40" r="6" fill="#fca5a5"/><circle cx="64" cy="40" r="6" fill="#fcd34d"/><circle cx="84" cy="40" r="6" fill="#86efac"/>
<text x="430" y="45" font-size="13" fill="#64748b" text-anchor="middle">Shopify admin (simplified drawing)</text>
<rect x="20" y="60" width="180" height="580" rx="0" fill="#f1f5f9" stroke="#e2e8f0" stroke-width="1"/>
<text x="40" y="100" font-size="14" font-weight="400" fill="#334155" text-anchor="start">Home</text>
<text x="40" y="140" font-size="14" font-weight="400" fill="#334155" text-anchor="start">Orders</text>
<text x="40" y="180" font-size="14" font-weight="400" fill="#334155" text-anchor="start">Products</text>
<text x="40" y="220" font-size="14" font-weight="400" fill="#334155" text-anchor="start">Customers</text>
<text x="40" y="260" font-size="14" font-weight="700" fill="#008060" text-anchor="start">Analytics</text>
<text x="40" y="300" font-size="14" font-weight="400" fill="#334155" text-anchor="start">Marketing</text>
<text x="40" y="340" font-size="14" font-weight="400" fill="#334155" text-anchor="start">Settings</text>
<rect x="230" y="84" width="150" height="32" rx="6" fill="#fff" stroke="#cbd5e1" stroke-width="1"/>
<text x="246" y="105" font-size="13" font-weight="600" fill="#0f172a" text-anchor="start">Yesterday ▾</text>
<rect x="230" y="140" width="182" height="100" rx="10" fill="#fff" stroke="#e2e8f0" stroke-width="1"/>
<text x="246" y="170" font-size="13" font-weight="600" fill="#475569" text-anchor="start">Gross sales</text>
<text x="246" y="210" font-size="26" font-weight="800" fill="#0f172a" text-anchor="start">$2,184</text>
<rect x="426" y="140" width="182" height="100" rx="10" fill="#fff" stroke="#e2e8f0" stroke-width="1"/>
<text x="442" y="170" font-size="13" font-weight="600" fill="#475569" text-anchor="start">Orders</text>
<text x="442" y="210" font-size="26" font-weight="800" fill="#0f172a" text-anchor="start">24</text>
<rect x="622" y="140" width="182" height="100" rx="10" fill="#fff" stroke="#e2e8f0" stroke-width="1"/>
<text x="638" y="170" font-size="13" font-weight="600" fill="#475569" text-anchor="start">Sessions</text>
<text x="638" y="210" font-size="26" font-weight="800" fill="#0f172a" text-anchor="start">1,090</text>
<rect x="230" y="260" width="182" height="100" rx="10" fill="#fff" stroke="#e2e8f0" stroke-width="1"/>
<text x="246" y="290" font-size="13" font-weight="600" fill="#475569" text-anchor="start">Conversion rate</text>
<text x="246" y="330" font-size="26" font-weight="800" fill="#0f172a" text-anchor="start">2.2%</text>
<rect x="426" y="260" width="182" height="100" rx="10" fill="#fff" stroke="#e2e8f0" stroke-width="1"/>
<text x="442" y="290" font-size="13" font-weight="600" fill="#475569" text-anchor="start">Average order value</text>
<text x="442" y="330" font-size="26" font-weight="800" fill="#0f172a" text-anchor="start">$91</text>
<rect x="230" y="400" width="574" height="200" rx="10" fill="#f0fdf4" stroke="#86efac" stroke-width="1"/>
<text x="250" y="432" font-size="14" font-weight="700" fill="#14532d" text-anchor="start">Type these into Helix (Today &gt; Update yesterday):</text>
<text x="270" y="466" font-size="14" font-weight="400" fill="#14532d" text-anchor="start">1. Sales: $2,184</text>
<text x="270" y="496" font-size="14" font-weight="400" fill="#14532d" text-anchor="start">2. Orders: 24</text>
<text x="270" y="526" font-size="14" font-weight="400" fill="#14532d" text-anchor="start">3. Meta and Google ad spend (Meta fills itself if connected)</text>
<line x1="210" y1="260" x2="196" y2="260" stroke="#b8601d" stroke-width="2.5" stroke-dasharray="5 4"/>
<circle cx="196" cy="260" r="5" fill="#b8601d"/>
<circle cx="210" cy="260" r="17" fill="#b8601d" stroke="#fff" stroke-width="3"/>
<text x="210" y="266" font-size="16" font-weight="800" fill="#fff" text-anchor="middle">1</text>
<line x1="400" y1="100" x2="380" y2="100" stroke="#b8601d" stroke-width="2.5" stroke-dasharray="5 4"/>
<circle cx="380" cy="100" r="5" fill="#b8601d"/>
<circle cx="400" cy="100" r="17" fill="#b8601d" stroke="#fff" stroke-width="3"/>
<text x="400" y="106" font-size="16" font-weight="800" fill="#fff" text-anchor="middle">2</text>
<line x1="384" y1="172" x2="348" y2="196" stroke="#b8601d" stroke-width="2.5" stroke-dasharray="5 4"/>
<circle cx="348" cy="196" r="5" fill="#b8601d"/>
<circle cx="384" cy="172" r="17" fill="#b8601d" stroke="#fff" stroke-width="3"/>
<text x="384" y="178" font-size="16" font-weight="800" fill="#fff" text-anchor="middle">3</text>
<rect x="860" y="20" width="320" height="620" rx="14" fill="#0b1f3a"/>
<text x="884" y="56" font-size="18" font-weight="800" fill="#fff">Find yesterday&#x27;s numbers</text>
<circle cx="896" cy="87" r="13" fill="#b8601d"/><text x="896" y="92" font-size="13" font-weight="800" fill="#fff" text-anchor="middle">1</text>
<text x="920" y="92" font-size="14" fill="#e2e8f0">In Shopify, open Analytics.</text>
<circle cx="896" cy="124" r="13" fill="#b8601d"/><text x="896" y="129" font-size="13" font-weight="800" fill="#fff" text-anchor="middle">2</text>
<text x="920" y="129" font-size="14" fill="#e2e8f0">Set the date to Yesterday.</text>
<circle cx="896" cy="161" r="13" fill="#b8601d"/><text x="896" y="166" font-size="13" font-weight="800" fill="#fff" text-anchor="middle">3</text>
<text x="920" y="166" font-size="14" fill="#e2e8f0">Read Total sales and Orders and</text>
<text x="920" y="185" font-size="14" fill="#e2e8f0">type them into the Update</text>
<text x="920" y="204" font-size="14" fill="#e2e8f0">yesterday box. Helix takes GST/VAT</text>
<text x="920" y="223" font-size="14" fill="#e2e8f0">out if Settings say your prices</text>
<text x="920" y="242" font-size="14" fill="#e2e8f0">include it. US stores: use Gross</text>
<text x="920" y="261" font-size="14" fill="#e2e8f0">sales, which leaves sales tax out.</text>
<text x="24" y="668" font-size="12" fill="#64748b">Screens change often. Labels on your screen may look a little different.</text>
<text x="1176" y="668" font-size="12" fill="#64748b" text-anchor="end">Ecommerce Helix guide · not a real screenshot</text></svg>